<svg xmlns="http://www.w3.org/2000/svg" aria-hidden="true" style="position:absolute;width:0;height:0;overflow:hidden">
  <defs>
    <symbol id="icon-Property-1Default" viewBox="0 0 32 32">
      <path fill="#f4f4fd" d="M22.921 8.979c.329-.289.766-.449 1.22-.445s.889.169 1.212.462c.324.293.512.691.524 1.11s-.153.825-.459 1.134l-9.31 10.748c-.16.159-.353.287-.568.376s-.447.136-.682.14c-.235.004-.469-.036-.687-.117s-.416-.202-.583-.356l-6.174-5.699c-.172-.148-.31-.326-.405-.524s-.147-.412-.151-.629c-.004-.217.039-.432.127-.633s.219-.384.385-.537c.166-.153.364-.274.582-.356s.451-.121.686-.117c.235.004.467.051.681.14s.408.216.568.374l4.886 4.508 8.104-9.531a.521.521 0 0 1 .047-.047h-.002z" style="fill:var(--color1, #f4f4fd)"/>
    </symbol>
  </defs>
</svg>
